<svg width="431" height="431" viewBox="0 0 431 431" fill="none" xmlns="http://www.w3.org/2000/svg">
<g opacity="0.1" clip-path="url(#clip0_1582_1019)">
<path d="M215.5 35.9167C264.293 35.9167 270.381 36.0963 289.524 36.9942C308.65 37.8922 321.669 40.8912 333.127 45.3449C344.979 49.9063 354.964 56.084 364.949 66.0508C374.081 75.0281 381.147 85.8874 385.655 97.873C390.091 109.312 393.108 122.35 394.006 141.476C394.85 160.619 395.083 166.707 395.083 215.5C395.083 264.293 394.904 270.381 394.006 289.524C393.108 308.65 390.091 321.67 385.655 333.127C381.16 345.119 374.092 355.981 364.949 364.949C355.969 374.078 345.111 381.143 333.127 385.655C321.687 390.091 308.65 393.108 289.524 394.006C270.381 394.85 264.293 395.083 215.5 395.083C166.707 395.083 160.619 394.904 141.476 394.006C122.35 393.108 109.33 390.091 97.8728 385.655C85.8824 381.156 75.0213 374.089 66.0506 364.949C56.9171 355.974 49.8509 345.114 45.3446 333.127C40.891 321.688 37.8919 308.65 36.994 289.524C36.15 270.381 35.9165 264.293 35.9165 215.5C35.9165 166.707 36.0961 160.619 36.994 141.476C37.8919 122.332 40.891 109.33 45.3446 97.873C49.8385 85.8801 56.9063 75.0178 66.0506 66.0508C75.0238 56.9142 85.8843 49.8476 97.8728 45.3449C109.33 40.8912 122.332 37.8922 141.476 36.9942C160.619 36.1502 166.707 35.9167 215.5 35.9167ZM215.5 125.708C191.686 125.708 168.847 135.169 152.008 152.008C135.168 168.847 125.708 191.686 125.708 215.5C125.708 239.314 135.168 262.153 152.008 278.992C168.847 295.832 191.686 305.292 215.5 305.292C239.314 305.292 262.153 295.832 278.992 278.992C295.831 262.153 305.292 239.314 305.292 215.5C305.292 191.686 295.831 168.847 278.992 152.008C262.153 135.169 239.314 125.708 215.5 125.708ZM332.229 121.219C332.229 115.265 329.864 109.556 325.654 105.346C321.444 101.136 315.735 98.7709 309.781 98.7709C303.828 98.7709 298.118 101.136 293.908 105.346C289.698 109.556 287.333 115.265 287.333 121.219C287.333 127.172 289.698 132.882 293.908 137.092C298.118 141.302 303.828 143.667 309.781 143.667C315.735 143.667 321.444 141.302 325.654 137.092C329.864 132.882 332.229 127.172 332.229 121.219ZM215.5 161.625C229.788 161.625 243.492 167.301 253.595 177.405C263.699 187.508 269.375 201.212 269.375 215.5C269.375 229.789 263.699 243.492 253.595 253.595C243.492 263.699 229.788 269.375 215.5 269.375C201.211 269.375 187.508 263.699 177.404 253.595C167.301 243.492 161.625 229.789 161.625 215.5C161.625 201.212 167.301 187.508 177.404 177.405C187.508 167.301 201.211 161.625 215.5 161.625Z" fill="#FC5252"/>
</g>
<defs>
<clipPath id="clip0_1582_1019">
<rect width="431" height="431" fill="white"/>
</clipPath>
</defs>
</svg>
