<svg width="34" height="40" viewBox="0 0 34 40" fill="none" xmlns="http://www.w3.org/2000/svg">
<path d="M3.24091 13.3024H3.14226C1.87772 13.3024 0.84668 14.3367 0.84668 15.5979V25.5925C0.84668 26.8587 1.87772 27.8897 3.14226 27.8897H3.24258C4.50712 27.8897 5.53816 26.8554 5.53816 25.5925V15.5979C5.53649 14.3367 4.50385 13.3024 3.24091 13.3024Z" fill="white"/>
<path d="M6.63647 29.4504C6.63647 30.6113 7.58526 31.5569 8.7462 31.5569H11.0007V36.9554C11.0007 38.2232 12.035 39.2543 13.2963 39.2543H13.3949C14.6611 39.2543 15.6938 38.2216 15.6938 36.9554V31.5569H18.8445V36.9554C18.8445 38.2232 19.8821 39.2543 21.1433 39.2543H21.2404C22.5065 39.2543 23.5375 38.2216 23.5375 36.9554V31.5569H25.7936C26.9529 31.5569 27.9018 30.6113 27.9018 29.4504V13.6692H6.63647V29.4504Z" fill="white"/>
<path d="M22.5658 4.09875L24.3566 1.33457C24.4717 1.16023 24.4207 0.92185 24.2448 0.80834C24.0705 0.69323 23.8321 0.740951 23.7185 0.920173L21.8621 3.7798C20.4693 3.2092 18.9137 2.88857 17.2709 2.88857C15.6265 2.88857 14.0742 3.2092 12.6781 3.7798L10.8249 0.920173C10.7115 0.740951 10.4714 0.69323 10.2954 0.80834C10.1195 0.921774 10.0685 1.16023 10.1836 1.33457L11.976 4.09875C8.74471 5.68232 6.56592 8.66689 6.56592 12.0905C6.56592 12.301 6.57911 12.5082 6.59717 12.7137H27.9462C27.9643 12.5082 27.9758 12.301 27.9758 12.0905C27.9759 8.66689 25.7954 5.68232 22.5658 4.09875ZM12.3213 9.04836C11.754 9.04836 11.2935 8.59119 11.2935 8.02227C11.2935 7.45335 11.754 6.99779 12.3213 6.99779C12.8919 6.99779 13.3491 7.45327 13.3491 8.02227C13.3491 8.59127 12.8886 9.04836 12.3213 9.04836ZM22.2189 9.04836C21.6516 9.04836 21.1911 8.59119 21.1911 8.02227C21.1911 7.45335 21.6516 6.99779 22.2189 6.99779C22.7878 6.99779 23.245 7.45327 23.245 8.02227C23.245 8.59119 22.7878 9.04836 22.2189 9.04836Z" fill="white"/>
<path d="M31.3962 13.3024H31.3008C30.0363 13.3024 29.002 14.3367 29.002 15.5979V25.5925C29.002 26.8587 30.0379 27.8897 31.3008 27.8897H31.3979C32.664 27.8897 33.6934 26.8554 33.6934 25.5925V15.5979C33.6934 14.3367 32.6607 13.3024 31.3962 13.3024Z" fill="white"/>
</svg>

