<svg width="33" height="42" viewBox="0 0 33 42" fill="none" xmlns="http://www.w3.org/2000/svg">
<path d="M1.6951 15.6784C-1.7029 21.575 0.457269 30.5234 4.2149 35.9491C6.09055 38.6617 7.98953 41.0967 10.5905 41.0967C10.6395 41.0967 10.6887 41.0958 10.739 41.0938C11.961 41.045 12.8441 40.6688 13.6979 40.3052C14.6565 39.8967 15.6479 39.4743 17.2029 39.4743C18.6823 39.4743 19.6264 39.883 20.5394 40.278C21.4392 40.6673 22.366 41.0701 23.7355 41.0444C26.6653 40.9898 28.4641 38.3623 30.0511 36.0444C31.7073 33.6242 32.538 31.2744 32.8183 30.3765L32.8296 30.3408C32.883 30.1812 32.8076 30.007 32.6546 29.9367C32.6504 29.9347 32.6349 29.9283 32.6305 29.9264C32.1146 29.7155 27.5889 27.7078 27.5414 22.2356C27.4972 17.7899 30.9365 15.4356 31.6262 15.0089L31.6584 14.9888C31.7331 14.9407 31.7851 14.8644 31.8028 14.7772C31.8205 14.6901 31.802 14.5994 31.7519 14.5261C29.378 11.0521 25.7395 10.5285 24.2746 10.4655C24.0621 10.4443 23.8426 10.4337 23.6223 10.4337C21.9018 10.4337 20.2536 11.0835 18.9294 11.6056C18.0154 11.966 17.2259 12.2773 16.6813 12.2773C16.0695 12.2773 15.2755 11.9622 14.356 11.5974C13.1265 11.1094 11.7329 10.5565 10.2576 10.5565C10.2224 10.5565 10.1878 10.5569 10.1537 10.5575C6.72337 10.608 3.48206 12.5705 1.6951 15.6784Z" fill="white"/>
<path d="M24.2779 0.903482C22.2006 0.988086 19.7087 2.26677 18.2193 4.0113C16.9536 5.47763 15.7171 7.92245 16.0428 10.3868C16.0632 10.541 16.1887 10.66 16.3438 10.672C16.484 10.6829 16.6271 10.6884 16.7697 10.6886C18.8009 10.6886 20.992 9.56485 22.4884 7.75548C24.0633 5.84491 24.8597 3.39297 24.6188 1.1967C24.5998 1.02459 24.4484 0.896761 24.2779 0.903482Z" fill="white"/>
</svg>

