<svg width="884" height="158" viewBox="0 0 884 158" fill="none" xmlns="http://www.w3.org/2000/svg">
<path d="M0 93.2206C20.973 67.8893 71.4505 26.7092 105.576 64.6389C139.702 102.569 186.98 80.4429 206.353 64.6389C222.35 42.446 260.848 4.71799 286.868 31.3495C319.394 64.6389 342.322 134.58 384.979 104.317C427.636 74.0541 493.222 -1.93989 510.818 31.3495C528.414 64.6389 563.606 161.481 623.859 104.317C684.112 47.1536 709.706 -17.7439 759.828 31.3495C799.925 70.6242 858.65 69.9069 883 64.6389" stroke="#EFB0BB" stroke-width="2"/>
<path d="M866 94.1204C845.431 110.07 795.925 135.998 762.457 112.116C728.988 88.2347 682.62 102.166 663.62 112.116C647.931 126.09 610.174 149.844 584.655 133.076C552.755 112.116 530.268 68.0793 488.432 87.1337C446.597 106.188 382.274 154.036 365.017 133.076C347.76 112.116 313.245 51.1419 254.152 87.1337C195.059 123.125 169.958 163.987 120.801 133.076C81.4752 108.348 23.8813 108.799 4.4749e-05 112.116" stroke="#EFB0BB" stroke-opacity="0.5" stroke-width="2"/>
<path d="M0 91.8996C40.669 69.3594 126.246 29.4342 143.203 50.0551C164.399 75.8313 177.841 162.533 209.893 147.804C241.946 133.075 302.95 44.3643 340.172 50.0551C377.395 55.746 379.98 165.211 428.576 156.507C477.172 147.804 452.357 52.7332 511.292 35.9954C570.228 19.2576 554.718 109.307 590.907 124.706C627.095 140.104 640.02 135.753 655.012 85.8741C670.005 35.9954 708.261 -22.2521 735.661 10.554C763.061 43.3601 741.348 92.5691 783.223 112.32C825.098 132.07 856.117 48.0466 857.151 42.021C857.978 37.2005 874.728 33.0942 883 31.6436" stroke="#FFB9B9" stroke-opacity="0.72"/>
</svg>
