<svg width="40" height="40" viewBox="0 0 40 40" fill="none" xmlns="http://www.w3.org/2000/svg">
<g clip-path="url(#clip0_1582_2220)">
<path d="M23.8838 12.7817L25.5209 11.1446L28.9022 14.5259L27.2651 16.163L23.8838 12.7817Z" fill="#C00096"/>
<path d="M20.6094 16.056L22.2465 14.4189L25.6278 17.8003L23.9907 19.4374L20.6094 16.056Z" fill="#C00096"/>
<path d="M29.4627 5.18951C29.2756 5.27858 29.1923 5.49748 29.2731 5.68779L29.2883 5.72365L29.681 6.99162C29.66 7.01053 29.639 7.02936 29.6186 7.04967L27.1626 9.50561L30.5445 12.8874L33.0005 10.4315C33.028 10.404 33.0541 10.3758 33.079 10.3471L34.3484 10.7403C34.5302 10.7966 34.7291 10.7094 34.8109 10.5375C36.4045 7.18928 39.6355 5.63631 39.7769 5.56975C39.8714 5.52592 39.9452 5.44428 39.9793 5.34569C40.0134 5.24725 40.0058 5.13748 39.9586 5.04459L38.3318 1.84647C38.3134 1.81022 38.2894 1.77725 38.2605 1.7485C38.2318 1.71975 38.1988 1.69576 38.1627 1.6774L35.01 0.0737315L34.9831 0.057169C34.9025 0.0074815 34.8067 -0.0107216 34.7133 0.00584088C34.5892 0.0278721 34.4836 0.109278 34.4306 0.223653C34.4151 0.257091 32.8436 3.58045 29.4627 5.18951Z" fill="#C00096"/>
<path d="M20.8807 30.2374C20.8371 29.5353 21.2891 28.9081 21.9554 28.7461C23.1296 28.4605 24.2018 27.8537 25.0561 26.9913C25.6635 26.3781 26.136 25.6624 26.4607 24.8641C26.6364 24.4323 26.5357 23.938 26.207 23.6094C26.202 23.6044 26.1969 23.5994 26.1918 23.5945C25.8511 23.266 25.3448 23.1779 24.9132 23.3721C23.7363 23.9016 22.1474 23.612 20.7479 22.6839L22.3576 21.0742L18.9757 17.6924L17.9562 18.712C17.7318 17.5913 17.932 16.5384 18.6134 15.857C18.8093 15.6612 19.0396 15.5005 19.2982 15.3793C19.7459 15.1695 20.0109 14.6984 19.9579 14.2068C19.9049 13.7152 19.5454 13.3115 19.0632 13.202C16.8545 12.7002 14.5829 13.3463 12.9865 14.9302C12.1223 15.7877 11.5156 16.864 11.2321 18.0425C11.0721 18.708 10.4451 19.1605 9.74137 19.1184C7.06559 18.9583 4.45145 19.9461 2.5691 21.8285C-0.856367 25.2539 -0.856367 30.8275 2.5691 34.2529L5.7473 37.4311C9.17277 40.8565 14.7464 40.8565 18.1718 37.4311C20.0601 35.5428 21.0474 32.9209 20.8807 30.2374ZM11.8378 30.6027L9.39762 28.1625C8.94551 27.7104 8.94551 26.9774 9.39762 26.5252C9.84973 26.0731 10.5828 26.0731 11.035 26.5252L13.4751 28.9653C13.9272 29.4175 13.9272 30.1505 13.4751 30.6027C13.0229 31.0548 12.2899 31.0548 11.8378 30.6027ZM15.498 26.9425L13.0579 24.5023C12.6057 24.0502 12.6057 23.3171 13.0579 22.8649C13.51 22.4128 14.243 22.4128 14.6952 22.8649L17.1354 25.3051C17.5875 25.7572 17.5875 26.4903 17.1354 26.9425C16.6832 27.3946 15.9501 27.3946 15.498 26.9425Z" fill="#C00096"/>
</g>
<defs>
<clipPath id="clip0_1582_2220">
<rect width="40" height="40" fill="white"/>
</clipPath>
</defs>
</svg>
